<svg xmlns="http://www.w3.org/2000/svg" width="253.822" height="77.497" viewBox="0 0 253.822 77.497">
  <g id="Grupo_4583" data-name="Grupo 4583" transform="translate(-248.501 -6746.613)">
    <path id="Trazado_17294" data-name="Trazado 17294" d="M356.616,276.1V247.082h-6.3a3.733,3.733,0,0,1-3.932-3.993,3.873,3.873,0,0,1,3.932-3.989h21.274a3.874,3.874,0,0,1,3.934,3.989,3.736,3.736,0,0,1-3.934,3.993h-6.3V276.1a4.34,4.34,0,1,1-8.674,0" transform="translate(-17.703 6524.788)" fill="#fff"/>
    <path id="Trazado_17295" data-name="Trazado 17295" d="M386.916,254.006a6.45,6.45,0,0,1,9.925-1.844,7.577,7.577,0,0,1,2.369,4.851H385.97a8.134,8.134,0,0,1,.946-3.007m16.287,10.88c-2.156,0-5.052,3.294-9.254,3.294-3.8,0-7.153-1.873-7.718-5.905h17.424c2.5,0,3.58-1.191,3.58-3.631,0-6.814-5.851-14.875-14.7-14.875-8.632,0-14.649,7.552-14.649,15.837,0,9.026,6.132,15.726,15.331,15.726,6.071,0,13.339-3.407,13.339-6.922a3.632,3.632,0,0,0-3.35-3.524" transform="translate(16.715 6529.888)" fill="#fff"/>
    <path id="Trazado_17296" data-name="Trazado 17296" d="M366.655,254.006a6.45,6.45,0,0,1,9.925-1.844,7.577,7.577,0,0,1,2.369,4.851h-13.24a8.136,8.136,0,0,1,.946-3.007m16.289,10.88c-2.158,0-5.052,3.294-9.256,3.294-3.8,0-7.153-1.873-7.718-5.905h17.423c2.5,0,3.581-1.191,3.581-3.631,0-6.814-5.851-14.875-14.7-14.875-8.632,0-14.649,7.552-14.649,15.837,0,9.026,6.132,15.726,15.331,15.726,6.071,0,13.339-3.407,13.339-6.922a3.632,3.632,0,0,0-3.348-3.524" transform="translate(-5.424 6529.888)" fill="#fff"/>
    <path id="Trazado_17297" data-name="Trazado 17297" d="M420.142,265.539a5.826,5.826,0,0,1-4.983,2.689c-4.508,0-6.588-4.395-6.588-8.385,0-3.6,1.649-7.624,5.328-8.373a5.94,5.94,0,0,1,1.595-.205c4.487,0,6.473,4.424,6.473,8.341a9.9,9.9,0,0,1-1.825,5.933m-4.648-21.77c-8.624,0-14.646,7.552-14.646,15.837,0,8.519,5.847,15.726,14.646,15.726s14.647-7.207,14.647-15.726c0-8.285-6.016-15.837-14.647-15.837" transform="translate(41.807 6529.888)" fill="#fff"/>
    <path id="Trazado_17298" data-name="Trazado 17298" d="M416.267,270.9V248.7c0-2.775,1.733-4.625,4.156-4.625a3.507,3.507,0,0,1,3.817,3.062c1.622-2.25,4.108-3.409,8.04-3.409,6.531,0,11.388,4.162,11.388,11.217V270.9c0,2.777-1.733,4.627-4.164,4.627s-4.162-1.85-4.162-4.627V256.4c0-3.876-2.428-5.723-5.432-5.723-3.413,0-5.322,2.486-5.322,5.723V270.9c0,2.777-1.735,4.627-4.164,4.627s-4.156-1.85-4.156-4.627" transform="translate(58.654 6529.847)" fill="#fff"/>
    <path id="Trazado_17299" data-name="Trazado 17299" d="M397.2,275.562V256.368h-1.85a3.372,3.372,0,0,1-3.643-3.643,3.556,3.556,0,0,1,3.643-3.639h1.85v-4.972c0-2.779,1.735-4.625,4.16-4.625s4.164,1.846,4.164,4.625v4.972H407.9c2.139,0,3.989.979,3.989,3.639,0,2.605-1.85,3.643-3.989,3.643h-2.371v19.194c0,2.775-1.733,4.627-4.164,4.627s-4.16-1.852-4.16-4.627" transform="translate(31.821 6525.211)" fill="#fff"/>
    <path id="Trazado_17300" data-name="Trazado 17300" d="M372.977,277.737V242.124c0-2.775,1.735-4.625,4.162-4.625s4.164,1.85,4.164,4.625v35.613c0,2.775-1.739,4.627-4.164,4.627s-4.162-1.852-4.162-4.627" transform="translate(11.353 6523.037)" fill="#fff"/>
    <path id="Trazado_17301" data-name="Trazado 17301" d="M420.688,238.836a4.445,4.445,0,0,0-5.094.954l-.017.015a4.5,4.5,0,0,0-2.551-4.566,3.855,3.855,0,0,0-.4-.163,4.451,4.451,0,0,0-5.527,2.333,4.547,4.547,0,0,0-.318,2.844l1.706,9.907a2.613,2.613,0,0,0,.228.72c.027.059.057.113.088.172a2.476,2.476,0,0,0,3.4.906l8.689-5.077a4.508,4.508,0,0,0-.2-8.044" transform="translate(48.181 6520.108)" fill="#fff"/>
    <path id="Sustracción_7" data-name="Sustracción 7" d="M9821.438,7141.5c-9.879,0-18.023-4.828-22-7.706a2.308,2.308,0,0,1-.218-.181l-.05-.044-.049-.052a2.651,2.651,0,0,1-.78-1.838.106.106,0,0,0,0-.018v-.015c0-.01,0-.02,0-.029a2.6,2.6,0,0,1,.908-1.95,38.393,38.393,0,0,0,5.219-5.189c.614-.736,1.167-1.454,1.69-2.192.584-.826,1.128-1.663,1.616-2.49a25.126,25.126,0,0,0,3.012-7.308s.074-.271-.052-.391a.306.306,0,0,0-.122-.069.375.375,0,0,0-.085-.01.654.654,0,0,0-.265.066,48.555,48.555,0,0,0-6.332,3.324,39.221,39.221,0,0,0-3.355,2.341,32.116,32.116,0,0,0-6.07,6.459,2.493,2.493,0,0,1-1.034.785.335.335,0,0,0-.037.018l-.008,0-.047.021a1.387,1.387,0,0,1-.159.048l-.039.011-.021.006-.045.014a1.449,1.449,0,0,1-.163.047.957.957,0,0,1-.1.013l-.018,0-.047.005-.048.008a2.114,2.114,0,0,1-.276.034h-.024l-.105,0a2.823,2.823,0,0,1-2.109-1.156,37.691,37.691,0,0,1-3.855-8.034,44.194,44.194,0,0,1-2.346-12.8,32.6,32.6,0,0,1,2.1-12.393,44.466,44.466,0,0,1,4.4-8.77,1.881,1.881,0,0,1,.2-.27,2.66,2.66,0,0,1,2.01-.928h.029a2.7,2.7,0,0,1,2.1,1.071,40.19,40.19,0,0,0,5.293,5.727,32.451,32.451,0,0,0,10.087,6.053,1,1,0,0,0,.348.082.283.283,0,0,0,.172-.047.15.15,0,0,0,.048-.082.865.865,0,0,0,0-.326c-.22-1.08-1.056-4.108-4.095-8.961a35.286,35.286,0,0,0-7.122-7.907,2.755,2.755,0,0,1-.936-2.324,2.363,2.363,0,0,1,.226-.81,2.833,2.833,0,0,1,.826-1.009l.082-.06c.592-.432,1.284-.9,2.059-1.383a39.094,39.094,0,0,1,19.682-5.882c.354-.01.713-.015,1.068-.015a37.585,37.585,0,0,1,22.48,7.429,2.831,2.831,0,0,1,1.15,2.136,2.633,2.633,0,0,1-1.064,2.108c-.563.471-1.167,1.008-1.794,1.6a40.244,40.244,0,0,0-4.543,5.125c-.168.227-.345.474-.527.735a33.229,33.229,0,0,0-4.311,9.181c0,.019-.094.474.024.586a.259.259,0,0,0,.185.068.444.444,0,0,0,.122-.019.352.352,0,0,0,.058-.02,30.693,30.693,0,0,0,3.588-1.576l.052-.025c.023-.011.045-.023.066-.035l.024-.013.025-.014a33.977,33.977,0,0,0,5.3-3.41,34.952,34.952,0,0,0,5.2-5.061c.451-.541.882-1.085,1.279-1.621l.013-.018.01-.012a2.89,2.89,0,0,1,2.086-1.115c.041,0,.083,0,.129,0a2.612,2.612,0,0,1,2.147,1.212,38.789,38.789,0,0,1,3.9,7.816,38.4,38.4,0,0,1,2.329,11.811l.008,0,0,.109c.012.418.021.8.024,1.18a37.584,37.584,0,0,1-2.187,12.609,42.948,42.948,0,0,1-4.134,8.544,2.568,2.568,0,0,1-.443.507,2.715,2.715,0,0,1-.532.378l-.02.01a2.261,2.261,0,0,1-.321.141l-.048.017a2.064,2.064,0,0,1-.363.092l-.022.007-.084.01-.109.012a2.221,2.221,0,0,1-.229.013,2.716,2.716,0,0,1-2.153-1.077,36.351,36.351,0,0,0-6.266-6.746,39.636,39.636,0,0,0-9.382-5.461.973.973,0,0,0-.288-.058.2.2,0,0,0-.17.063l-.01.007a.626.626,0,0,0-.034.4,42.713,42.713,0,0,0,4.855,10.21,38.141,38.141,0,0,0,6.632,6.989,2.552,2.552,0,0,1,.913,2.042,2.578,2.578,0,0,1-1.087,2.089,36.42,36.42,0,0,1-8.342,4.605,42.813,42.813,0,0,1-14.036,2.908h-.124C9822.189,7141.488,9821.806,7141.5,9821.438,7141.5Zm-28.6-56.319h-.017a.173.173,0,0,0-.126.067l0,0c-2.36,3.945-5.175,10.085-5.175,16.932,0,.04,0,.081,0,.121s0,.08,0,.117a273.707,273.707,0,0,0,69.5,0,35.4,35.4,0,0,0-4.88-16.957.222.222,0,0,0-.158-.084h-.008a.229.229,0,0,0-.129.044l-.012.01-.025.018-.01.012c-.638.789-1.258,1.506-1.9,2.2a37.815,37.815,0,0,1-4.291,3.964,36.845,36.845,0,0,1-10.312,5.707c-.2.071-.395.134-.567.187l-.019.006a7.029,7.029,0,0,1-1.5.2h-.127a2.864,2.864,0,0,1-1.7-.439,1.729,1.729,0,0,1-.223-.19l-.032-.032c-.059-.062-.107-.118-.153-.176l-.021-.027a.26.26,0,0,1-.021-.029l-.014-.021c-.022-.032-.049-.07-.074-.111a.768.768,0,0,1-.047-.082.857.857,0,0,1-.069-.128l-.037-.074c-.01-.02-.018-.041-.026-.061l-.012-.028-.026-.062-.02-.05a4.81,4.81,0,0,1-.245-1.705c0-.054,0-.105,0-.158l0-.1,0-.017,0-.042c0-.014,0-.028,0-.042l0-.042c0-.041,0-.082.008-.122l0-.027c0-.059.01-.118.016-.174l.007-.065,0-.037c.007-.073.015-.152.027-.23l0-.047c.01-.077.02-.146.032-.218l.007-.06c0-.016.006-.031.008-.046l.009-.046c.006-.036.012-.07.019-.1a.977.977,0,0,0,.015-.1c.008-.034.015-.069.021-.1l0-.025,0-.024.045-.215.007-.03a16.187,16.187,0,0,1,.567-2.009l0,0a35.946,35.946,0,0,1,4.812-9.125,43.239,43.239,0,0,1,5.864-6.412.7.7,0,0,0,.114-.206.169.169,0,0,0,0-.077.191.191,0,0,0-.039-.077,34.02,34.02,0,0,0-19.354-6c-.322,0-.648,0-.969.013a35.343,35.343,0,0,0-18.687,5.857l0,0a.278.278,0,0,0-.08.12l0,.027a.268.268,0,0,0,.088.2,36.168,36.168,0,0,1,6.762,7.783c4.255,6.777,4.68,10.517,4.722,11.2a5.455,5.455,0,0,1-.344,2.618l0,.01a1.957,1.957,0,0,1-1.144,1.066,3.409,3.409,0,0,1-1.2.193,6.688,6.688,0,0,1-1.831-.285,35.294,35.294,0,0,1-12.081-7.028,42.812,42.812,0,0,1-4.709-4.964A.389.389,0,0,0,9792.839,7085.177Z" transform="translate(-9535 -317.886)" fill="#fff" stroke="rgba(0,0,0,0)" stroke-miterlimit="10" stroke-width="1"/>
  </g>
</svg>
